<svg xmlns="http://www.w3.org/2000/svg" xmlns:xlink="http://www.w3.org/1999/xlink" viewBox="0 0 150 81">
  <defs>
    <path d="M15.056 18.096c.459 0 .928-.059 1.408-.176.48-.117.93-.288 1.352-.512.421-.224.8-.499 1.136-.824.336-.325.595-.701.776-1.128l-1.808-1.04c-.128.31-.299.573-.512.792a3 3 0 01-1.488.84 3.556 3.556 0 01-.8.096c-.49 0-.941-.107-1.352-.32a3.401 3.401 0 01-1.056-.848 3.854 3.854 0 01-.68-1.224 4.41 4.41 0 01-.24-1.448c0-.448.07-.899.208-1.352.139-.453.344-.859.616-1.216a3.186 3.186 0 011.024-.872c.41-.224.893-.336 1.448-.336.256 0 .517.03.784.088.267.059.523.152.768.28.245.128.475.301.688.52a2.9 2.9 0 01.544.808l1.696-1.168c-.373-.736-.941-1.333-1.704-1.792-.763-.459-1.667-.688-2.712-.688-.885 0-1.675.165-2.368.496a5.55 5.55 0 00-1.76 1.296 5.59 5.59 0 00-1.096 1.816 5.884 5.884 0 00-.376 2.056c0 .725.136 1.437.408 2.136a6.2 6.2 0 001.136 1.872c.485.55 1.064.995 1.736 1.336a4.84 4.84 0 002.224.512zM22.224 18l1.04-2.832h3.968L28.288 18h2.272L26.24 6.64h-1.952L19.952 18h2.272zm4.608-4.384h-3.2l1.632-4.464 1.568 4.464zM34.016 18v-3.808h2.176L38.512 18h2.48L38.4 13.728a3.168 3.168 0 001.496-1.304 3.778 3.778 0 00.28-3.376 4.077 4.077 0 00-.752-1.216 3.746 3.746 0 00-1.144-.864 3.224 3.224 0 00-1.448-.328h-5.024V18h2.208zm2.768-5.744h-2.768v-3.68h2.672c.192 0 .381.045.568.136.187.09.352.219.496.384.144.165.259.36.344.584.085.224.128.47.128.736 0 .256-.037.496-.112.72a1.954 1.954 0 01-.304.584c-.128.165-.28.296-.456.392a1.168 1.168 0 01-.568.144zM50.336 18v-1.936h-5.68v-2.96h4.784v-1.792h-4.784V8.576h5.536V6.64h-7.744V18h7.888zm9.616 0v-1.936h-5.68v-2.96h4.784v-1.792h-4.784V8.576h5.536V6.64h-7.744V18h7.888zm3.936 0v-3.808h2.176L68.384 18h2.48l-2.592-4.272a3.168 3.168 0 001.496-1.304 3.778 3.778 0 00.28-3.376 4.077 4.077 0 00-.752-1.216 3.746 3.746 0 00-1.144-.864 3.224 3.224 0 00-1.448-.328H61.68V18h2.208zm2.768-5.744h-2.768v-3.68h2.672c.192 0 .381.045.568.136.187.09.352.219.496.384.144.165.259.36.344.584.085.224.128.47.128.736 0 .256-.037.496-.112.72a1.954 1.954 0 01-.304.584c-.128.165-.28.296-.456.392a1.168 1.168 0 01-.568.144zm9.6 5.872c.555 0 1.085-.061 1.592-.184a4.034 4.034 0 001.344-.584 2.89 2.89 0 00.928-1.048c.23-.432.344-.952.344-1.56 0-.523-.085-.963-.256-1.32a2.643 2.643 0 00-.728-.92 4.097 4.097 0 00-1.152-.64 16.43 16.43 0 00-1.512-.48 28.195 28.195 0 01-1.128-.304 4.105 4.105 0 01-.808-.32 1.452 1.452 0 01-.488-.408.97.97 0 01-.168-.584c0-.405.15-.72.448-.944.299-.224.752-.336 1.36-.336.341 0 .677.043 1.008.128.33.085.637.19.92.312.283.123.523.248.72.376.197.128.333.23.408.304l.976-1.792a8.223 8.223 0 00-1.76-.888 6.271 6.271 0 00-2.208-.376c-.576 0-1.115.077-1.616.232a4.023 4.023 0 00-1.32.68 3.104 3.104 0 00-.888 1.12c-.213.448-.32.96-.32 1.536 0 .437.067.813.2 1.128.133.315.333.592.6.832.267.24.6.448 1 .624s.872.339 1.416.488c.448.128.853.245 1.216.352.363.107.672.224.928.352.256.128.453.277.592.448.139.17.208.379.208.624 0 .779-.608 1.168-1.824 1.168-.437 0-.864-.053-1.28-.16a6.909 6.909 0 01-1.136-.392 7.948 7.948 0 01-.888-.464 3.083 3.083 0 01-.52-.376l-.976 1.904c.661.47 1.408.832 2.24 1.088a8.551 8.551 0 002.528.384z" id="a"/>
  </defs>
  <g fill-rule="nonzero" fill="none">
    <g fill="#008BCB">
      <path d="M5.501 39.305c1.286-.99 2.572-1.986 3.858-2.975 1.814-1.401 4.02-1.467 6.486-.618l.032-.017c2.677 1.698 4.68 4.73 5.306 7.805 1.261-2.514-1.457-9.206-2.14-10.137-.301-.544-.562-1.121-.822-1.698l-.252-.552c-.326-.684-.464-1.319-.4-1.904.066-.569.318-1.105.782-1.6 1.392-1.5 2.71-3 3.898-4.5 1.97-2.463 3.394-4.886 4.907-7.598 2.06-3.7 3.866-7.69 5.526-11.86 1.229 4.096 2.173 8.539 2.938 13.228.293 2.052.431 4.113.358 6.165-.139 3.865-.838 7.211-3.646 10.038-2.368 2.242-4.224 4.624-4.248 7.46-.252 2.909.863 5.628 2.368 8.299 2.14 3.7 4.989 6.882 8.415 9.634 4.231 3.71 8.797 6.742 13.5 9.503-5.053-.387-9.578-2.415-13.81-5.637 2.474 2.703 3.37 6.453 2.588 10.12-.691-2.134-1.44-4.277-2.343-6.214-.985-2.101-2.173-4.285-4.15-5.58-2.434-1.598-5.225-2.233-7.935-3.131-3.662-1.22-7.023-3.017-9.473-6.124-.944-1.203-1.758-2.555-2.522-4.08-.969-1.928-1.913-3.89-3.378-5.538-1.334-1.261-2.994-2.291-5.843-2.49zm10.889-4.022c.635-.767.342-1.929-.098-3.165a18.247 18.247 0 00-1.579-2.794c-1.692-2.44-4.077-3.857-2.628-7.327.903-1.92 1.815-3.849 2.718-5.769.244-.849.366-1.665.358-2.448-.04-3.354-2.433-7.211-4.736-9.404a18.8 18.8 0 014.573 2.35c4.232 2.933 7.617 7.244 9.277 12.172l.147.132a43.635 43.635 0 01-2.67 3.684c-1.187 1.492-2.498 2.976-3.865 4.46-.561.6-.87 1.26-.952 1.985-.073.71.081 1.46.464 2.259l.252.544c1.4 2.851 2.726 5.414 3.198 8.571l.05.288c-.994-2.142-2.507-4.112-4.428-5.472l-.081-.066z"/>
      <path d="M18.587 7.772a1.002 1.002 0 01-1.383-.37A1.045 1.045 0 0117.562 6a37.56 37.56 0 012.425-1.352A35.946 35.946 0 0136.279.733h.008c2.816 0 5.566.33 8.203.948a35.212 35.212 0 016.242 2.094C61.01 8.299 68.945 17.538 71.614 29.143a1.03 1.03 0 01-.757 1.236 1.016 1.016 0 01-1.22-.766c-2.515-10.954-10.01-19.673-19.71-23.95a33.475 33.475 0 00-5.893-1.97 34.062 34.062 0 00-7.747-.899h-.008A33.83 33.83 0 0018.61 7.772h-.024zM63.875 58.022c.325-.453.944-.56 1.4-.239.455.321.569.964.252 1.426l-.017.016a35.793 35.793 0 01-3.1 3.726 37.479 37.479 0 01-3.516 3.247c-6.356 5.126-14.306 8.01-22.615 8.01v-.007c-10.018 0-19.092-4.113-25.65-10.756C4.068 56.802.008 47.621.008 37.467H0h.008a37.025 37.025 0 014.045-16.846 36.643 36.643 0 017.495-10.022 1.006 1.006 0 011.432.05 1.037 1.037 0 01-.049 1.45 34.744 34.744 0 00-8.048 11.53 35.008 35.008 0 00-2.84 13.822h.008-.008c0 9.568 3.833 18.239 10.034 24.519 6.2 6.28 14.762 10.162 24.21 10.162 7.845 0 15.356-2.72 21.354-7.566a33.428 33.428 0 003.32-3.058 34.713 34.713 0 002.914-3.486z"/>
      <path d="M52.319 50.876c-.187.932-.602 1.715-1.245 2.35-.88.832-2.06 1.244-3.54 1.244-1.71 0-3.036-.478-3.996-1.434-.879-.874-1.31-2.011-1.31-3.412 0-1.377.431-2.514 1.294-3.412.92-.981 2.197-1.476 3.816-1.476 1.547 0 2.76.371 3.646 1.105a3.464 3.464 0 011.278 2.225h-1.335c-.382-1.533-1.579-2.291-3.597-2.291-1.188 0-2.132.395-2.832 1.187-.635.725-.952 1.607-.952 2.662 0 1.088.317 1.97.952 2.662.692.758 1.677 1.137 2.954 1.137 1.026 0 1.864-.272 2.507-.824a2.98 2.98 0 001-1.714h1.36v-.009zM64.037 54.19c-.09.033-.325.049-.691.049-.407.008-.692-.008-.863-.074-.415-.124-.708-.42-.879-.874-.032-.057-.065-.272-.106-.634h-.048c-.66 1.203-2.116 1.805-4.37 1.805-1.303 0-2.263-.314-2.873-.948-.472-.495-.708-1.121-.708-1.896 0-1.088.48-1.83 1.448-2.242.48-.197 1.343-.346 2.58-.436.464-.05 1.156-.1 2.075-.157.7-.025 1.188-.157 1.449-.404.252-.206.382-.56.382-1.047 0-1.112-1.033-1.664-3.092-1.664-1.083 0-1.856.164-2.328.478-.463.321-.748.873-.838 1.656H53.93c.114-1.005.448-1.739 1.001-2.209.7-.585 1.864-.873 3.491-.873 2.848 0 4.273.84 4.273 2.522v5.217c0 .255.04.461.122.61.049.082.146.132.309.156.13.009.293.009.504 0 .302-.008.44-.016.416-.016v.98h-.009zm-2.604-3.643v-1.344c-.3.305-1.424.487-3.36.56-1.042.034-1.807.166-2.287.388-.635.28-.953.767-.953 1.45 0 .57.204 1.03.61 1.385.448.396 1.1.594 1.938.594 1.27 0 2.262-.28 2.978-.841.716-.569 1.074-1.294 1.074-2.192zM70.54 46.096a5.5 5.5 0 00-1.034-.107c-1.164 0-2.05.412-2.661 1.228-.496.668-.74 1.492-.74 2.489v4.442h-1.278V45.05h1.277v2.152h.05a3.348 3.348 0 011.212-1.682c.667-.503 1.456-.75 2.352-.75.048 0 .325.025.83.066v1.261h-.008zM81.33 49.88h-8.968c.033 1.038.359 1.87.969 2.505.692.725 1.684 1.088 2.97 1.088 1.88 0 3.028-.75 3.459-2.259h1.383c-.203.89-.691 1.632-1.448 2.226-.895.692-2.018 1.03-3.353 1.03-1.717 0-3.044-.462-3.98-1.385-.887-.865-1.334-2.052-1.334-3.569 0-1.409.48-2.563 1.44-3.445.96-.89 2.214-1.335 3.76-1.335 1.668 0 2.954.495 3.857 1.492.83.907 1.245 2.126 1.245 3.651zm-1.367-.891c0-.849-.358-1.615-1.074-2.291-.716-.676-1.603-1.014-2.661-1.014-1.107 0-2.01.321-2.71.964-.66.594-1.042 1.377-1.156 2.35h7.601v-.009zM53.393 37.418c0 1.4-.415 2.546-1.253 3.453-.88.972-2.075 1.45-3.597 1.45-1.01 0-1.856-.214-2.547-.65-.603-.355-1.018-.808-1.254-1.369v1.682h-1.725V29.34h1.725v5.217c.562-1.344 1.815-2.011 3.76-2.011 1.481 0 2.661.445 3.548 1.335.904.906 1.343 2.077 1.343 3.536zm-1.799.016c0-1.047-.3-1.896-.895-2.547-.594-.65-1.44-.972-2.522-.972-1.058 0-1.905.288-2.523.873-.643.627-.969 1.509-.969 2.63 0 1.063.285 1.903.863 2.522.61.667 1.49.997 2.629.997 1.098 0 1.953-.338 2.58-1.014.56-.626.837-1.459.837-2.489zM57.08 41.992h-1.734V29.349h1.733zM68.847 41.975h-1.725v-1.574c-.196.495-.61.915-1.237 1.278-.716.428-1.547.65-2.482.65-2.637 0-3.955-1.17-3.955-3.502v-6.008h1.725v5.588c0 1.69.92 2.538 2.767 2.538 1.115 0 1.961-.363 2.522-1.088.44-.56.66-1.211.66-1.945V32.82h1.725v9.156zM81.453 37.821h-8.855c.13 2.127 1.351 3.19 3.663 3.19 1.652 0 2.677-.626 3.092-1.87h1.888c-.203.807-.692 1.507-1.449 2.1-.935.726-2.091 1.089-3.474 1.089-1.807 0-3.19-.462-4.15-1.385-.912-.865-1.368-2.069-1.368-3.61 0-1.426.496-2.588 1.481-3.494.985-.907 2.279-1.36 3.882-1.36 1.774 0 3.117.51 4.028 1.524.838.932 1.262 2.21 1.262 3.816zm-1.84-1.153c0-.767-.341-1.46-1.025-2.06-.684-.603-1.497-.9-2.433-.9-.977 0-1.782.273-2.41.817-.626.544-1.008 1.26-1.147 2.143h7.015zM93.708 37.418c0 1.4-.415 2.546-1.253 3.453-.879.972-2.075 1.45-3.597 1.45-1.009 0-1.855-.214-2.547-.65-.602-.355-1.017-.808-1.253-1.369v1.682h-1.726V29.34h1.726v5.217c.561-1.344 1.814-2.011 3.76-2.011 1.48 0 2.66.445 3.548 1.335.895.906 1.342 2.077 1.342 3.536zm-1.798.016c0-1.047-.301-1.896-.895-2.547-.603-.65-1.44-.972-2.523-.972-1.058 0-1.904.288-2.523.873-.643.627-.968 1.509-.968 2.63 0 1.063.285 1.903.862 2.522.61.667 1.49.997 2.629.997 1.098 0 1.953-.338 2.58-1.014.553-.626.838-1.459.838-2.489zM97.387 31.31H95.66V29.35h1.726v1.961zm0 10.682H95.66v-9.173h1.726v9.173zM105.907 34.319c-.44-.091-.838-.14-1.213-.14-1.106 0-1.944.37-2.506 1.104-.472.61-.708 1.36-.708 2.258v4.45h-1.725V32.82h1.725v2.027h.033c.227-.626.634-1.154 1.212-1.574.643-.486 1.408-.734 2.279-.734.049 0 .342.025.895.075v1.706h.008zM117.268 41.992h-1.726v-1.665h-.065c-.578 1.319-1.847 1.978-3.816 1.978-1.498 0-2.678-.486-3.54-1.45-.822-.899-1.23-2.053-1.23-3.446 0-1.393.432-2.546 1.295-3.47.862-.923 2.018-1.384 3.458-1.384 1.905 0 3.182.651 3.841 1.945h.065v-5.151h1.726v12.643h-.008zm-1.644-4.533c0-1.096-.31-1.962-.92-2.588-.61-.626-1.465-.948-2.555-.948-1.074 0-1.913.322-2.531.956-.619.635-.928 1.484-.928 2.547 0 1.063.293 1.904.88 2.522.61.667 1.472.997 2.595.997 1.107 0 1.97-.33 2.596-.997.57-.627.863-1.45.863-2.49zM84.92 44.547c1.082 0 1.936.89 1.936 2.002 0 1.13-.862 2.011-1.945 2.011-1.082 0-1.953-.881-1.953-2.01 0-1.113.879-2.003 1.953-2.003h.008zm-.009.313c-.87 0-1.579.758-1.579 1.69 0 .947.708 1.697 1.587 1.697.88.008 1.58-.75 1.58-1.69 0-.939-.7-1.697-1.58-1.697h-.008zm-.374 2.852h-.35v-2.234c.187-.025.358-.05.627-.05.333 0 .553.075.683.165.13.1.204.248.204.462 0 .297-.196.47-.432.544v.016c.196.033.326.215.366.544.057.346.106.478.139.553h-.366c-.057-.075-.106-.28-.147-.57-.049-.288-.195-.387-.472-.387h-.244v.957h-.008zm0-1.237h.252c.293 0 .537-.107.537-.379 0-.198-.138-.395-.537-.395-.114 0-.195.008-.252.016v.758z"/>
    </g>
    <g transform="translate(54 57)">
      <rect fill="#C4429F" width="96" height="24" rx="3"/>
      <use fill="#000" xlink:href="#a"/>
      <use fill="#FFF" xlink:href="#a"/>
    </g>
  </g>
</svg>