<svg viewBox="0 0 79 74" xmlns="http://www.w3.org/2000/svg" fill-rule="evenodd" clip-rule="evenodd" stroke-linejoin="round" stroke-miterlimit="2"><path fill="none" d="M0 0h79v73.85H0z"/><g fill="#fff"><path d="M32.457.15c13.81.135 26.75 10.61 30.001 24.275 3.501 14.707-4.723 31.51-18.796 37.2-13.787 5.574-31.165-.744-38.47-13.956-6.886-12.45-4.35-29.451 6.153-39.238C16.91 3.247 24.405.225 32.055.15h.402zm-.389 2C18.955 2.279 6.723 12.416 3.876 25.43.901 39.028 8.516 54.387 21.433 59.704c12.833 5.282 29.13-.51 36.05-12.846 6.465-11.527 4.303-27.33-5.295-36.6-5.333-5.15-12.75-8.131-20.12-8.107z"/><path d="M56.404 50.657c.205.04.394.128.561.26l21.516 19.948c.73.79-.406 2.22-1.36 1.466L55.605 52.383c-.579-.628-.246-1.77.8-1.726zM22.911 23.622c.71.17.791.316.844.988v14.769c-.062.792-.259.942-1 1H10.53c-1.084-.085-1.372-1.892 0-2h11.225v-12.77H10.53c-1.09-.085-1.272-1.9 0-2h12.225l.156.013zM52.675 38.39c.988.237 1.086 1.89-.156 1.988H29.375c-1.084-.085-1.372-1.892 0-2H52.52l.156.012zm1.461-7.385c.987.237 1.086 1.889-.155 1.988l-24.605.016c-1.073-.084-1.214-1.904-.002-2l24.605-.016.157.012zm-1.46-7.385c.987.237 1.085 1.89-.157 1.988H29.375c-1.055-.083-1.304-1.897 0-2H52.52l.156.012z"/></g></svg>