<svg viewBox="0 0 56 60" xmlns="http://www.w3.org/2000/svg" fill-rule="evenodd" clip-rule="evenodd">
  <path fill="none" d="M0 0h56v60H0z"/>
  <path d="M27.473 40.435s3.86-1.54 4.864-1.899c1.002-.36 1.985-.35 2.521.09.812.667 7.574 6.664 8.14 7.19.567.528.693 1.825-.344 2.932-1.033 1.11-5.685 5.411-7.36 5.124-1.676-.29-8.655-1.426-20.002-16.456C3.947 22.391 4.775 15.381 4.958 13.693c.183-1.687 5.61-4.964 6.962-5.65 1.354-.686 2.568-.186 2.92.48.4.756 4.26 8.864 4.68 9.79.288.632.016 1.582-.608 2.445-.622.864-3.169 4.141-3.169 4.141s1.096 2.656 5.286 8.202c4.19 5.548 6.445 7.334 6.445 7.334h-.001z" fill="#fff" stroke="#fff" stroke-width="1.4"/>
  <path d="M43.114 27.13c-.056.53.287 1.101.952 1.171.664.07 1.105-.287 1.174-.95.769-7.293-4.583-13.887-11.892-14.654-.531-.056-1.105.287-1.175.95-.07.663.287 1.102.952 1.172 6.127.508 10.646 6.077 9.99 12.31h-.001z" fill="#fff" fill-rule="nonzero"/>
  <path d="M31.879 19.251c-.056.53.287 1.103.951 1.172 3.19.335 5.45 3.12 5.114 6.302-.056.53.287 1.102.951 1.172.665.07 1.105-.286 1.175-.95.447-4.243-2.645-8.053-6.897-8.499-.797-.083-1.238.273-1.294.803zm1.681-13.13c-.531-.057-1.105.286-1.175.95-.07.662.287 1.101.952 1.171 9.568 1.003 16.584 9.65 15.578 19.197-.056.53.287 1.102.952 1.172.664.07 1.105-.286 1.175-.95.998-10.754-6.718-20.412-17.482-21.54z" fill="#fff" fill-rule="nonzero"/>
</svg>